<svg width="1024" height="256" viewBox="0 0 1024 256" fill="none" xmlns="http://www.w3.org/2000/svg">
<g filter="url(#filter0_d_641_91812)">
<path fill-rule="evenodd" clip-rule="evenodd" d="M270.774 44.4238C289.426 44.4238 304.527 59.5514 304.527 78.1855V108.537C304.576 108.583 304.625 108.629 304.673 108.676L305.308 109.304L305.323 109.319L305.558 109.558L305.573 109.573C311.127 115.282 317.124 124.681 317.124 137.795C317.124 149.136 312.638 157.65 307.722 163.425C310.961 167.94 313.318 173.879 313.318 181.25C313.318 192.823 307.535 200.801 301.759 205.351L301.748 205.358L301.737 205.367L301.507 205.547L301.495 205.556L301.482 205.565C298.75 207.667 296.104 208.991 294.157 209.8C293.158 210.215 292.275 210.523 291.566 210.746C291.21 210.858 290.889 210.951 290.608 211.028C290.471 211.066 290.342 211.1 290.222 211.131C290.157 211.147 290.089 211.165 290.041 211.177L290.032 211.179L290.031 211.178C290.029 211.178 290.026 211.18 290.023 211.181L289.975 211.193L289.926 211.205L289.912 211.208L289.794 211.236L289.778 211.239L289.763 211.243C289.756 211.245 289.749 211.246 289.742 211.247C289.715 211.254 289.68 211.263 289.642 211.272C288.47 211.554 287.27 211.705 286.064 211.726L286.065 211.727L285.79 211.731L284.618 211.751L271.122 211.991L271.123 211.992L271.086 211.993H271.071L271.057 211.994L270.95 211.995L270.915 211.996H238.572C233.312 211.996 228.562 209.536 225.498 205.641C222.434 209.536 217.684 211.996 212.425 211.996H180.088L180.054 211.995L179.947 211.994L179.933 211.993H179.918L179.881 211.992L165.21 211.73L164.943 211.727H164.939C163.735 211.706 162.537 211.555 161.366 211.274C161.336 211.267 161.308 211.259 161.282 211.253L161.277 211.251H161.274C161.265 211.249 161.258 211.247 161.252 211.246L161.247 211.244C161.245 211.244 161.242 211.243 161.239 211.242L161.241 211.243L161.236 211.242H161.239C161.222 211.238 161.198 211.234 161.176 211.229C161.152 211.223 161.127 211.217 161.107 211.212C161.093 211.208 161.076 211.205 161.061 211.201C161.052 211.199 161.044 211.197 161.037 211.195L161.035 211.194L160.977 211.181L160.964 211.178L160.952 211.175C160.871 211.155 160.797 211.135 160.787 211.133C160.784 211.132 160.779 211.131 160.772 211.129L160.771 211.128H160.773C160.771 211.127 160.768 211.127 160.765 211.126C160.763 211.125 160.759 211.125 160.759 211.125C160.756 211.124 160.751 211.124 160.745 211.122C160.743 211.121 160.738 211.12 160.732 211.118C160.728 211.117 160.723 211.116 160.719 211.115L160.714 211.113L159.405 210.77L159.354 210.719C158.658 210.497 157.805 210.198 156.847 209.8C154.901 208.991 152.254 207.669 149.521 205.566C143.655 201.055 137.684 193.011 137.684 181.25C137.684 173.879 140.039 167.939 143.279 163.424C138.363 157.649 133.879 149.135 133.879 137.795C133.879 124.472 140.068 114.985 145.694 109.304C145.955 109.041 146.216 108.785 146.476 108.536V78.1855C146.476 59.5509 161.577 44.424 180.229 44.4238H270.774ZM289.101 211.377C289.112 211.375 289.125 211.374 289.138 211.372C289.142 211.371 289.147 211.37 289.151 211.369C289.133 211.372 289.116 211.375 289.101 211.377ZM289.218 211.357H289.222C289.226 211.357 289.233 211.355 289.241 211.354L289.218 211.357ZM160.864 211.121L160.866 211.122L160.875 211.125C160.879 211.126 160.884 211.128 160.888 211.129C160.896 211.132 160.904 211.135 160.912 211.138C160.929 211.144 160.948 211.15 160.968 211.156C160.996 211.165 161.028 211.175 161.062 211.186L161.103 211.028L161.536 209.227C160.868 211.108 160.864 211.121 160.864 211.121ZM290.065 211.17C290.062 211.171 290.055 211.173 290.047 211.175C290.059 211.172 290.069 211.17 290.071 211.169C290.071 211.169 290.069 211.169 290.065 211.17Z" fill="white"/>
<path d="M225.517 179.683C212.215 179.683 210.313 192.934 210.313 192.934H180.229L165.538 192.672C165.538 192.672 156.746 190.57 156.746 181.25C156.746 171.93 165.538 169.959 165.538 169.959V156.962C165.538 156.962 152.941 151.743 152.941 137.795C152.941 123.846 165.538 118.101 165.538 118.101V78.1861C165.538 70.0684 172.116 63.4867 180.229 63.4867H224.583H226.419H270.775C278.887 63.4867 285.465 70.0684 285.465 78.1861V118.101C285.465 118.101 298.061 123.846 298.061 137.795C298.061 151.743 285.465 156.962 285.465 156.962V169.959C285.465 169.959 294.256 171.93 294.256 181.25C294.256 190.57 285.465 192.672 285.465 192.672L270.775 192.934H240.69C240.69 192.934 238.819 179.683 225.517 179.683Z" fill="url(#paint0_linear_641_91812)"/>
<path fill-rule="evenodd" clip-rule="evenodd" d="M197.198 87.0527C211.004 87.0527 222.194 98.2506 222.194 112.062C222.194 125.873 211.004 137.07 197.198 137.07C183.393 137.07 172.203 125.873 172.203 112.062C172.203 98.2506 183.393 87.0528 197.198 87.0527ZM197.198 90.2018C185.134 90.2018 175.352 99.988 175.352 112.062C175.352 124.136 185.134 133.921 197.198 133.922C208.127 133.922 217.183 125.891 218.791 115.404C217.774 116.762 216.152 117.642 214.325 117.642C211.245 117.642 208.749 115.144 208.749 112.063C208.749 108.983 211.245 106.485 214.325 106.485L214.469 106.486C216.238 106.531 217.801 107.4 218.791 108.723C217.185 98.2342 208.129 90.2018 197.198 90.2018Z" fill="url(#paint1_linear_641_91812)"/>
<path fill-rule="evenodd" clip-rule="evenodd" d="M253.686 87.0527C267.491 87.0527 278.682 98.2506 278.682 112.062C278.682 125.873 267.491 137.07 253.686 137.07C239.881 137.07 228.691 125.873 228.691 112.062C228.691 98.2506 239.881 87.0528 253.686 87.0527ZM253.686 90.2018C242.754 90.2018 233.695 98.2383 232.091 108.731C233.108 107.367 234.732 106.485 236.564 106.485L236.708 106.486C239.721 106.562 242.139 109.031 242.14 112.063C242.139 115.143 239.644 117.642 236.564 117.642C234.733 117.642 233.108 116.759 232.092 115.396C233.697 125.887 242.755 133.921 253.686 133.922C265.75 133.922 275.533 124.136 275.533 112.062C275.533 99.988 265.75 90.2018 253.686 90.2018Z" fill="url(#paint2_linear_641_91812)"/>
<path d="M284.386 154.364L284.385 154.365L284.381 154.366C284.382 154.366 284.383 154.365 284.384 154.365L284.386 154.364Z" fill="url(#paint3_linear_641_91812)"/>
<path fill-rule="evenodd" clip-rule="evenodd" d="M270.775 60.6738C280.442 60.6738 288.278 68.5163 288.278 78.1857V116.432C288.487 116.557 288.712 116.695 288.95 116.848C290.264 117.689 292.01 118.969 293.762 120.738C297.278 124.288 300.874 129.885 300.874 137.795C300.874 145.715 297.267 151.195 293.719 154.629C291.956 156.336 290.199 157.55 288.878 158.341C288.667 158.468 288.466 158.583 288.278 158.688V167.966C289.215 168.37 290.379 168.978 291.554 169.864C294.312 171.944 297.068 175.541 297.068 181.25C297.068 186.954 294.318 190.575 291.575 192.685C290.235 193.716 288.908 194.383 287.918 194.795C287.42 195.002 286.997 195.148 286.687 195.246C286.532 195.295 286.404 195.331 286.308 195.358C286.26 195.371 286.22 195.382 286.188 195.39C286.173 195.394 286.159 195.397 286.147 195.4C286.141 195.401 286.136 195.403 286.132 195.404C286.129 195.405 286.127 195.405 286.125 195.405C286.124 195.406 286.122 195.406 286.122 195.406C286.12 195.404 286.097 195.317 285.465 192.672L286.119 195.407L285.821 195.478L285.515 195.483L270.825 195.745L270.799 195.746H238.247L237.907 193.339C237.907 193.339 237.906 193.336 237.906 193.332C237.904 193.322 237.901 193.301 237.895 193.268C237.884 193.203 237.864 193.095 237.833 192.949C237.771 192.658 237.666 192.222 237.502 191.692C237.172 190.621 236.617 189.214 235.726 187.829C234.002 185.149 231.023 182.495 225.517 182.495C220.01 182.495 217.021 185.15 215.29 187.833C214.395 189.219 213.837 190.626 213.504 191.698C213.338 192.228 213.233 192.664 213.17 192.955C213.139 193.101 213.118 193.209 213.107 193.274C213.101 193.307 213.098 193.329 213.096 193.339C213.095 193.342 213.095 193.345 213.095 193.345L212.75 195.746H180.204L180.179 195.745L165.487 195.483L165.182 195.478L164.884 195.407L165.475 192.933C164.902 195.331 164.883 195.404 164.881 195.406C164.881 195.406 164.879 195.406 164.878 195.405C164.876 195.405 164.874 195.404 164.871 195.404C164.867 195.403 164.861 195.402 164.856 195.4C164.844 195.397 164.83 195.394 164.815 195.39C164.783 195.382 164.743 195.371 164.695 195.358C164.599 195.331 164.471 195.295 164.316 195.246C164.006 195.148 163.583 195.002 163.084 194.795C162.095 194.383 160.767 193.716 159.427 192.685C156.685 190.576 153.934 186.954 153.934 181.25C153.934 175.541 156.69 171.944 159.448 169.864C160.623 168.977 161.788 168.37 162.725 167.966V158.688C162.537 158.583 162.336 158.468 162.125 158.341C160.804 157.55 159.046 156.336 157.284 154.629C153.736 151.195 150.129 145.715 150.129 137.795C150.129 129.885 153.725 124.288 157.241 120.738C158.992 118.969 160.739 117.689 162.052 116.848C162.291 116.695 162.516 116.557 162.725 116.432V78.1857C162.725 68.5162 170.561 60.6738 180.229 60.6738H270.775ZM180.229 66.2988C173.67 66.2988 168.35 71.6198 168.35 78.1857V119.909L166.708 120.658L166.706 120.659C166.695 120.664 166.673 120.675 166.64 120.691C166.574 120.723 166.467 120.777 166.323 120.854C166.037 121.008 165.609 121.25 165.087 121.584C164.038 122.256 162.636 123.284 161.238 124.696C158.456 127.505 155.754 131.755 155.754 137.795C155.754 143.822 158.445 147.925 161.196 150.588C162.582 151.93 163.973 152.892 165.014 153.515C165.532 153.825 165.957 154.048 166.241 154.188C166.382 154.258 166.488 154.307 166.553 154.336C166.582 154.349 166.603 154.358 166.614 154.363L166.614 154.363L168.35 155.082V172.211L166.168 172.7C166.164 172.701 166.156 172.703 166.145 172.706C166.113 172.714 166.052 172.73 165.968 172.756C165.798 172.807 165.535 172.893 165.21 173.023C164.554 173.286 163.688 173.712 162.835 174.354C161.198 175.59 159.559 177.639 159.559 181.25C159.559 184.866 161.203 186.955 162.857 188.226C163.714 188.886 164.585 189.327 165.244 189.601C165.543 189.725 165.79 189.812 165.961 189.866L180.259 190.121H208.104C208.113 190.09 208.122 190.059 208.132 190.028C208.571 188.615 209.32 186.709 210.564 184.782C213.108 180.84 217.722 176.87 225.517 176.87C233.313 176.87 237.92 180.841 240.457 184.786C241.697 186.714 242.441 188.62 242.877 190.033C242.886 190.063 242.895 190.092 242.904 190.121H270.745L285.042 189.866C285.212 189.812 285.459 189.725 285.759 189.601C286.418 189.327 287.288 188.886 288.146 188.227C289.799 186.955 291.443 184.866 291.443 181.25C291.443 177.638 289.804 175.589 288.167 174.354C287.314 173.712 286.448 173.286 285.792 173.023C285.468 172.893 285.205 172.807 285.035 172.756C284.95 172.73 284.89 172.714 284.858 172.706C284.846 172.703 284.838 172.701 284.834 172.7L282.653 172.211V155.082L284.388 154.363C284.4 154.359 284.42 154.349 284.45 154.336C284.514 154.307 284.62 154.258 284.762 154.188C285.046 154.048 285.47 153.825 285.988 153.515C287.029 152.892 288.421 151.93 289.807 150.588C292.558 147.925 295.249 143.822 295.249 137.795C295.249 131.755 292.547 127.505 289.765 124.696C288.367 123.284 286.964 122.256 285.916 121.584C285.394 121.25 284.966 121.008 284.679 120.854C284.536 120.777 284.428 120.723 284.363 120.691C284.33 120.675 284.308 120.664 284.297 120.659C284.295 120.658 284.294 120.658 284.292 120.657L282.653 119.909V78.1857C282.653 71.6197 277.332 66.2988 270.775 66.2988H180.229ZM166.21 189.941C166.21 189.941 166.209 189.94 166.207 189.94C166.206 189.939 166.203 189.939 166.201 189.939C166.206 189.94 166.209 189.941 166.21 189.941ZM166.617 154.365L166.622 154.366C166.621 154.366 166.62 154.365 166.618 154.365L166.616 154.364L166.617 154.365ZM284.292 120.657L284.291 120.656C284.289 120.656 284.288 120.655 284.288 120.655C284.288 120.655 284.29 120.656 284.292 120.657Z" fill="url(#paint4_linear_641_91812)"/>
<path fill-rule="evenodd" clip-rule="evenodd" d="M607.443 46.5781C615.78 46.5785 623.487 51.0245 627.658 58.249C630.948 63.9474 631.641 70.6884 629.739 76.8271H861.582C864.31 76.8272 866.847 77.3142 869.032 77.9316C872.408 78.7934 875.396 80.3429 877.959 82.3164C881.085 84.5813 883.46 87.4499 885.169 90.5879C887.637 94.9461 888.392 99.5725 888.392 103.637V170.397C888.392 173.672 887.399 176.715 885.7 179.243L886.978 181.283C888.559 183.809 889.398 186.73 889.398 189.71V194.314C889.398 202.924 882.545 209.931 873.997 210.183C873.989 210.187 873.983 210.19 873.979 210.19H837.556C837.53 210.191 837.504 210.191 837.478 210.191H823.265C823.237 210.191 823.21 210.191 823.183 210.19H783.474C783.442 210.191 783.41 210.191 783.379 210.191H768.736C768.709 210.191 768.682 210.191 768.654 210.19H697.533C696.586 210.367 695.61 210.46 694.611 210.46H692.904C691.906 210.46 690.929 210.367 689.982 210.19H673.805C672.796 210.326 671.787 210.393 670.788 210.393H656.575C655.712 210.393 654.865 210.323 654.04 210.19H570.982C570.955 210.191 570.928 210.191 570.9 210.191H556.256C556.224 210.191 556.193 210.191 556.161 210.19H536.098C536.066 210.191 536.034 210.191 536.003 210.191H521.359C521.332 210.191 521.305 210.191 521.277 210.19H449.92C449.888 210.191 449.857 210.191 449.825 210.191H439.421C439.394 210.191 439.366 210.191 439.339 210.19H360.814C357.913 210.19 355.194 209.411 352.854 208.052C347.216 205.773 342.895 200.339 342.895 193.317V64.4893C342.895 63.0677 343.071 61.7165 343.395 60.4453C344.383 52.6265 351.057 46.5801 359.145 46.5801H533.161C533.188 46.5799 533.216 46.5791 533.243 46.5791H540.598C540.617 46.5791 540.637 46.58 540.656 46.5801H583.391C583.418 46.5799 583.445 46.5791 583.473 46.5791H594.889C594.916 46.5791 594.943 46.5799 594.971 46.5801H597.953C598.008 46.5795 598.063 46.5781 598.117 46.5781H607.443Z" fill="white"/>
<path fill-rule="evenodd" clip-rule="evenodd" d="M389.983 91.8281C393.562 91.8281 396.346 92.5055 398.334 93.8574C400.322 95.1298 401.753 96.5609 402.628 98.1514C403.582 99.7418 404.14 101.214 404.299 102.565L404.537 104.592V158.034C404.537 160.658 404.06 162.845 403.105 164.595C402.231 166.265 401.117 167.617 399.766 168.65C398.414 169.684 396.983 170.4 395.472 170.798C394.04 171.196 392.767 171.394 391.653 171.394H357.895V91.8281H389.983ZM378.651 151.115H381.275C381.434 151.115 381.714 150.957 382.111 150.639C382.588 150.241 382.787 149.285 382.707 147.774V114.852C382.707 114.454 382.666 113.977 382.587 113.42C382.507 112.784 382.309 112.267 381.991 111.869C381.753 111.75 381.515 111.675 381.276 111.646L381.038 111.631H378.651V151.115Z" fill="url(#paint5_linear_641_91812)"/>
<path d="M431.139 171.274H409.309V91.8281H431.139V171.274Z" fill="url(#paint6_linear_641_91812)"/>
<path d="M468.476 91.8281C471.259 91.8281 473.565 92.3054 475.395 93.2598C477.223 94.1345 478.655 95.2478 479.688 96.5996C480.802 97.9515 481.557 99.3835 481.955 100.895C482.432 102.405 482.671 103.718 482.671 104.831V131.432L461.557 117.714V113.896C461.557 113.26 461.358 112.743 460.961 112.346C460.643 111.869 460.085 111.63 459.29 111.63C458.416 111.63 457.819 111.908 457.501 112.465C457.262 113.021 457.144 113.499 457.144 113.896V119.026L475.275 130.717C477.104 132.069 478.496 133.421 479.45 134.772C480.484 136.045 481.24 137.237 481.717 138.351C482.194 139.384 482.472 140.26 482.552 140.976C482.631 141.691 482.671 142.088 482.671 142.168V158.392C482.671 161.572 482.114 164.038 481.001 165.787C479.888 167.537 478.655 168.809 477.303 169.604C475.951 170.4 474.679 170.877 473.486 171.036C472.373 171.195 471.815 171.274 471.815 171.274H449.031C444.976 171.274 441.875 170.041 439.728 167.576C438.773 166.542 438.057 165.469 437.58 164.355C437.103 163.163 436.744 162.049 436.506 161.016C436.267 159.903 436.148 158.988 436.148 158.272V132.982L457.144 145.866V150.279C457.144 150.916 457.302 151.513 457.62 152.069C457.938 152.546 458.535 152.785 459.41 152.785C460.841 152.785 461.557 151.87 461.557 150.041V145.031L444.499 134.295C442.431 133.102 440.841 131.829 439.728 130.478C438.614 129.046 437.778 127.774 437.222 126.66C436.665 125.468 436.347 124.474 436.268 123.679C436.188 122.884 436.148 122.446 436.148 122.366V104.354C436.148 100.616 437.262 97.6339 439.488 95.4072C440.363 94.5324 441.278 93.8561 442.232 93.3789C443.266 92.9019 444.18 92.5442 444.976 92.3057C445.85 92.0671 446.566 91.9473 447.123 91.9473C447.75 91.8689 448.068 91.8292 448.077 91.8281H468.476Z" fill="url(#paint7_linear_641_91812)"/>
<path d="M508.558 116.998L512.017 113.539V91.8281H532.654V122.604L523.946 131.193L532.654 139.782V171.274H511.421L511.182 148.729L508.558 146.224V171.274H487.324V91.8281H508.558V116.998Z" fill="url(#paint8_linear_641_91812)"/>
<path d="M594.015 91.8281C596.798 91.8281 599.104 92.3054 600.934 93.2598C602.763 94.1345 604.194 95.2478 605.228 96.5996C606.341 97.9515 607.097 99.3835 607.494 100.895C607.971 102.405 608.21 103.718 608.21 104.831V131.432L587.096 117.714V113.896C587.096 113.26 586.898 112.743 586.5 112.346C586.182 111.869 585.624 111.63 584.829 111.63C583.955 111.63 583.358 111.908 583.04 112.465C582.801 113.021 582.683 113.499 582.683 113.896V119.026L600.814 130.717C602.643 132.069 604.035 133.421 604.989 134.772C606.023 136.045 606.779 137.237 607.256 138.351C607.733 139.384 608.011 140.26 608.091 140.976C608.17 141.691 608.21 142.088 608.21 142.168V158.392C608.21 161.572 607.653 164.038 606.54 165.787C605.427 167.537 604.194 168.809 602.842 169.604C601.49 170.4 600.218 170.877 599.025 171.036C597.912 171.195 597.354 171.274 597.354 171.274H574.57C570.515 171.274 567.414 170.041 565.267 167.576C564.312 166.542 563.596 165.469 563.119 164.355C562.642 163.163 562.283 162.049 562.045 161.016C561.806 159.903 561.688 158.988 561.688 158.272V132.982L582.683 145.866V150.279C582.683 150.916 582.841 151.513 583.159 152.069C583.477 152.546 584.074 152.785 584.949 152.785C586.38 152.785 587.096 151.87 587.096 150.041V145.031L570.038 134.295C567.97 133.102 566.38 131.829 565.267 130.478C564.153 129.046 563.317 127.774 562.761 126.66C562.204 125.468 561.886 124.474 561.807 123.679C561.727 122.884 561.688 122.446 561.688 122.366V104.354C561.688 100.616 562.801 97.6339 565.027 95.4072C565.902 94.5324 566.817 93.8561 567.771 93.3789C568.805 92.9019 569.72 92.5442 570.515 92.3057C571.389 92.0671 572.105 91.9473 572.662 91.9473C573.289 91.8689 573.607 91.8292 573.616 91.8281H594.015Z" fill="url(#paint9_linear_641_91812)"/>
<path d="M634.216 127.973C634.216 128.291 634.296 128.49 634.455 128.569C634.773 128.887 635.37 129.046 636.244 129.046C637.198 129.046 637.875 128.848 638.272 128.45C638.431 128.291 638.511 128.132 638.511 127.973V91.8281H660.221V158.868C660.221 158.948 660.181 159.306 660.102 159.942C660.102 160.579 659.983 161.374 659.744 162.328C659.506 163.282 659.148 164.316 658.671 165.43C658.194 166.463 657.517 167.417 656.643 168.292C654.734 170.28 652.189 171.274 649.008 171.274H616.323V152.308H636.722C637.596 152.308 638.073 152.188 638.152 151.949C638.311 151.631 638.392 151.313 638.392 150.995V148.729H624.554C623.997 148.728 623.083 148.649 621.811 148.49C620.538 148.252 619.226 147.695 617.874 146.82C616.681 145.946 615.488 144.633 614.295 142.884C613.182 141.055 612.625 138.43 612.625 135.011V91.8281H634.216V127.973Z" fill="url(#paint10_linear_641_91812)"/>
<path d="M697.44 91.8281C700.224 91.8281 702.53 92.3054 704.359 93.2598C706.188 94.1345 707.62 95.2477 708.654 96.5996C709.768 97.9515 710.522 99.3836 710.92 100.895C711.397 102.405 711.636 103.718 711.636 104.831V131.432L690.521 117.714V113.896C690.521 113.26 690.323 112.743 689.926 112.346C689.608 111.869 689.051 111.63 688.256 111.63C687.381 111.63 686.784 111.908 686.466 112.465C686.227 113.021 686.108 113.499 686.108 113.896V119.026L704.24 130.717C706.069 132.069 707.461 133.421 708.415 134.772C709.449 136.045 710.205 137.237 710.682 138.351C711.159 139.384 711.437 140.26 711.517 140.976C711.596 141.691 711.636 142.088 711.636 142.168V158.392C711.636 161.572 711.079 164.038 709.966 165.787C708.852 167.537 707.62 168.809 706.268 169.604C704.916 170.4 703.644 170.877 702.451 171.036C701.338 171.195 700.78 171.274 700.78 171.274H677.996C673.94 171.274 670.84 170.041 668.692 167.576C667.738 166.542 667.022 165.469 666.545 164.355C666.068 163.163 665.709 162.049 665.471 161.016C665.232 159.903 665.113 158.988 665.113 158.272V132.982L686.108 145.866V150.279C686.108 150.916 686.267 151.513 686.585 152.069C686.903 152.546 687.5 152.785 688.375 152.785C689.806 152.785 690.521 151.87 690.521 150.041V145.031L673.464 134.295C671.396 133.102 669.806 131.829 668.692 130.478C667.579 129.046 666.743 127.774 666.187 126.66C665.63 125.468 665.312 124.474 665.232 123.679C665.153 122.884 665.113 122.446 665.113 122.366V104.354C665.113 100.616 666.227 97.6339 668.453 95.4072C669.328 94.5324 670.243 93.8561 671.197 93.3789C672.231 92.9019 673.145 92.5442 673.94 92.3057C674.815 92.0671 675.531 91.9473 676.088 91.9473C676.715 91.8689 677.033 91.8293 677.042 91.8281H697.44Z" fill="url(#paint11_linear_641_91812)"/>
<path d="M757.085 91.8281V112.704H747.184V171.274H724.877V112.584H715.453V91.8281H757.085Z" fill="url(#paint12_linear_641_91812)"/>
<path d="M797.761 112.227H782.61V122.247H797.521V142.406H782.61V152.188H797.761V171.274H761.02V91.8281H797.761V112.227Z" fill="url(#paint13_linear_641_91812)"/>
<path d="M829.97 91.9473C830.606 91.9473 831.322 92.0671 832.117 92.3057C832.992 92.5442 833.907 92.9018 834.861 93.3789C835.816 93.856 836.73 94.5325 837.604 95.4072C838.32 94.5325 839.394 93.7372 840.825 93.0215C842.257 92.2262 844.046 91.8281 846.193 91.8281H861.582C862.616 91.8282 863.808 92.0272 865.16 92.4248C866.512 92.7429 867.785 93.3788 868.978 94.333C870.25 95.2078 871.284 96.4011 872.079 97.9121C872.954 99.4231 873.392 101.332 873.392 103.638V171.274H852.277V115.09C852.357 114.931 852.357 114.652 852.277 114.255C852.277 113.778 852.158 113.38 851.919 113.062C851.601 112.744 851.044 112.584 850.249 112.584C849.613 112.584 849.176 112.664 848.938 112.823C848.699 112.903 848.54 113.022 848.46 113.181C848.062 113.737 847.863 114.215 847.863 114.612C847.784 114.93 847.784 115.169 847.863 115.328V171.274H826.868V115.328C826.868 115.169 826.829 114.811 826.749 114.255C826.749 113.698 826.59 113.221 826.272 112.823C826.113 112.744 825.914 112.624 825.676 112.465C825.517 112.306 825.119 112.227 824.482 112.227C823.926 112.227 823.529 112.306 823.29 112.465C823.131 112.624 823.011 112.744 822.932 112.823C822.534 113.221 822.256 113.738 822.097 114.374C822.017 114.93 822.017 115.328 822.097 115.566V171.274H802.176V91.8281H829.135C829.135 91.8281 829.413 91.8678 829.97 91.9473Z" fill="url(#paint14_linear_641_91812)"/>
<path d="M375.07 108.053V154.576H381.393C381.87 154.576 382.386 154.495 382.943 154.336C383.499 154.097 384.017 153.701 384.494 153.144C384.971 152.587 385.369 151.91 385.687 151.115C386.005 150.24 386.165 149.127 386.165 147.775V143.72V137.159V129.525V122.366V117.119V114.972C386.165 114.812 386.084 114.136 385.925 112.943C385.846 111.67 385.369 110.518 384.494 109.484C383.619 108.53 382.467 108.053 381.035 108.053L375.07 108.053ZM378.649 111.631H381.035C381.354 111.631 381.671 111.71 381.989 111.869C382.307 112.267 382.505 112.784 382.585 113.42C382.664 113.977 382.705 114.454 382.705 114.852V117.357V122.724V129.883V137.278V143.72V147.775C382.784 149.286 382.586 150.242 382.109 150.639C381.711 150.957 381.432 151.115 381.273 151.115H378.649L378.649 111.631Z" fill="url(#paint15_linear_641_91812)"/>
<path fill-rule="evenodd" clip-rule="evenodd" d="M389.983 95.4062C392.608 95.4062 394.635 95.8451 396.066 96.7197C397.577 97.5945 398.691 98.5888 399.407 99.7021C400.123 100.736 400.56 101.769 400.719 102.803C400.878 103.757 400.958 104.353 400.958 104.592V158.033C400.958 160.419 400.52 162.289 399.646 163.641C398.771 164.913 397.777 165.868 396.664 166.504C395.551 167.14 394.476 167.538 393.442 167.697C392.488 167.777 391.891 167.815 391.652 167.815H361.473V95.4062H389.983ZM375.072 154.575H381.396C381.872 154.575 382.388 154.494 382.944 154.335C383.501 154.096 384.019 153.7 384.496 153.144C384.973 152.587 385.371 151.909 385.689 151.114C386.007 150.24 386.167 149.126 386.167 147.774V114.971C386.167 114.811 386.087 114.134 385.928 112.942C385.848 111.67 385.371 110.517 384.496 109.483C383.621 108.529 382.469 108.052 381.037 108.052H375.072V154.575Z" fill="url(#paint16_linear_641_91812)"/>
<path d="M427.558 167.697H412.766V95.4082H427.558V167.697Z" fill="url(#paint17_linear_641_91812)"/>
<path d="M468.476 95.4082C471.02 95.4082 473.008 95.846 474.439 96.7207C475.871 97.5955 476.905 98.6294 477.541 99.8223C478.257 100.936 478.694 102.009 478.854 103.043C479.013 103.997 479.092 104.593 479.092 104.832V124.872L465.016 115.807V114.018C465.016 113.779 464.936 113.222 464.777 112.348C464.698 111.473 464.26 110.597 463.465 109.723C463.147 109.325 462.669 108.967 462.033 108.649C461.477 108.252 460.642 108.053 459.528 108.053C458.256 108.053 457.262 108.291 456.546 108.769C455.91 109.246 455.393 109.683 454.995 110.081C454.359 110.797 453.962 111.512 453.803 112.228C453.644 112.943 453.564 113.501 453.564 113.898V121.056L473.366 133.7C474.798 134.734 475.871 135.768 476.587 136.802C477.382 137.756 477.939 138.631 478.257 139.426C478.654 140.221 478.893 140.897 478.973 141.454C479.052 141.931 479.092 142.17 479.092 142.17V158.393C479.092 160.619 478.734 162.369 478.019 163.642C477.382 164.914 476.627 165.868 475.752 166.504C474.877 167.061 474.042 167.419 473.247 167.578C472.452 167.658 471.975 167.697 471.815 167.697H449.031C446.089 167.697 443.862 166.862 442.351 165.192C441.635 164.397 441.078 163.562 440.681 162.688C440.363 161.733 440.124 160.858 439.965 160.062C439.806 159.188 439.727 158.473 439.727 157.916V139.426L453.564 147.896V150.162C453.565 150.322 453.604 150.918 453.684 151.951C453.763 152.905 454.24 153.82 455.115 154.694C455.513 155.092 456.069 155.49 456.785 155.888C457.501 156.206 458.415 156.365 459.528 156.365C460.641 156.365 461.477 156.206 462.033 155.888C462.669 155.49 463.186 155.092 463.584 154.694C464.379 153.74 464.817 152.786 464.896 151.832C464.976 150.798 465.016 150.082 465.016 149.685V143.005L446.407 131.314C444.817 130.36 443.544 129.366 442.59 128.332C441.715 127.298 441.078 126.344 440.681 125.469C440.283 124.594 440.005 123.878 439.846 123.321C439.766 122.685 439.727 122.367 439.727 122.367V104.354C439.727 102.207 440.125 100.538 440.92 99.3447C441.715 98.152 442.59 97.2774 443.544 96.7207C444.578 96.0845 445.532 95.726 446.407 95.6465C447.282 95.4875 447.839 95.4082 448.077 95.4082H468.476Z" fill="url(#paint18_linear_641_91812)"/>
<path d="M504.975 125.946L515.472 114.972V95.4082H529.071V121.056L518.932 131.195L529.071 141.215V167.697H514.876L514.637 147.18L504.975 137.994V167.697H490.898V95.4082H504.975V125.946Z" fill="url(#paint19_linear_641_91812)"/>
<path d="M594.019 95.4082C596.563 95.4082 598.551 95.846 599.982 96.7207C601.414 97.5955 602.448 98.6294 603.084 99.8223C603.8 100.936 604.237 102.009 604.396 103.043C604.556 103.997 604.635 104.593 604.635 104.832V124.872L590.559 115.807V114.018C590.559 113.779 590.479 113.222 590.32 112.348C590.241 111.473 589.803 110.597 589.008 109.723C588.69 109.325 588.212 108.967 587.576 108.649C587.019 108.252 586.185 108.053 585.071 108.053C583.799 108.053 582.805 108.291 582.089 108.769C581.453 109.246 580.936 109.683 580.538 110.081C579.902 110.797 579.505 111.512 579.346 112.228C579.187 112.943 579.107 113.501 579.107 113.898V121.056L598.909 133.7C600.341 134.734 601.414 135.768 602.13 136.802C602.925 137.756 603.482 138.631 603.8 139.426C604.197 140.221 604.436 140.897 604.516 141.454C604.595 141.931 604.635 142.17 604.635 142.17V158.393C604.635 160.619 604.277 162.369 603.562 163.642C602.925 164.914 602.17 165.868 601.295 166.504C600.42 167.061 599.585 167.419 598.79 167.578C597.995 167.658 597.518 167.697 597.358 167.697H574.574C571.632 167.697 569.405 166.862 567.894 165.192C567.178 164.397 566.621 163.562 566.224 162.688C565.906 161.733 565.667 160.858 565.508 160.062C565.349 159.188 565.27 158.473 565.27 157.916V139.426L579.107 147.896V150.162C579.107 150.322 579.147 150.918 579.227 151.951C579.306 152.905 579.783 153.82 580.658 154.694C581.056 155.092 581.612 155.49 582.328 155.888C583.044 156.206 583.958 156.365 585.071 156.365C586.184 156.365 587.019 156.206 587.576 155.888C588.212 155.49 588.729 155.092 589.127 154.694C589.922 153.74 590.36 152.786 590.439 151.832C590.519 150.798 590.559 150.082 590.559 149.685V143.005L571.95 131.314C570.36 130.36 569.087 129.366 568.133 128.332C567.258 127.298 566.621 126.344 566.224 125.469C565.826 124.594 565.548 123.878 565.389 123.321C565.309 122.685 565.27 122.367 565.27 122.367V104.354C565.27 102.207 565.668 100.538 566.463 99.3447C567.258 98.152 568.133 97.2774 569.087 96.7207C570.121 96.0845 571.075 95.726 571.95 95.6465C572.825 95.4875 573.382 95.4082 573.62 95.4082H594.019Z" fill="url(#paint20_linear_641_91812)"/>
<path d="M630.637 127.378C630.557 127.617 630.557 128.094 630.637 128.81C630.716 129.525 631.075 130.201 631.711 130.837C632.665 132.03 634.176 132.626 636.243 132.626C638.39 132.626 639.941 132.03 640.896 130.837C641.532 130.121 641.89 129.405 641.97 128.689C642.049 127.974 642.089 127.497 642.089 127.259V95.4082H656.642V158.87C656.64 158.88 656.601 159.159 656.522 159.705C656.522 160.182 656.443 160.779 656.284 161.494C656.125 162.13 655.847 162.846 655.449 163.642C655.131 164.437 654.654 165.153 654.018 165.789C652.825 167.061 651.155 167.697 649.008 167.697H619.901V155.888H636.721C638.311 155.888 639.584 155.45 640.538 154.575C641.492 153.7 641.97 152.508 641.97 150.997V145.151H624.554C624.236 145.151 623.599 145.112 622.645 145.032C621.77 144.873 620.855 144.476 619.901 143.84C617.436 142.09 616.203 139.147 616.203 135.012V95.4082H630.637V127.378Z" fill="url(#paint21_linear_641_91812)"/>
<path d="M697.44 95.4082C699.985 95.4082 701.973 95.846 703.404 96.7207C704.836 97.5955 705.87 98.6294 706.506 99.8223C707.222 100.936 707.659 102.009 707.818 103.043C707.977 103.997 708.057 104.593 708.057 104.832V124.872L693.98 115.807V114.018C693.98 113.779 693.901 113.222 693.742 112.348C693.663 111.473 693.225 110.597 692.43 109.723C692.112 109.325 691.634 108.967 690.998 108.649C690.441 108.252 689.606 108.053 688.493 108.053C687.221 108.053 686.226 108.291 685.511 108.769C684.875 109.246 684.358 109.683 683.96 110.081C683.324 110.797 682.927 111.512 682.768 112.228C682.609 112.943 682.529 113.501 682.529 113.898V121.056L702.331 133.7C703.762 134.734 704.836 135.768 705.552 136.802C706.347 137.756 706.904 138.631 707.222 139.426C707.619 140.221 707.858 140.897 707.938 141.454C708.017 141.931 708.057 142.17 708.057 142.17V158.393C708.057 160.619 707.699 162.369 706.983 163.642C706.347 164.914 705.591 165.868 704.717 166.504C703.842 167.061 703.007 167.419 702.212 167.578C701.417 167.658 700.939 167.697 700.78 167.697H677.996C675.054 167.697 672.826 166.862 671.315 165.192C670.6 164.397 670.043 163.562 669.646 162.688C669.327 161.733 669.089 160.858 668.93 160.062C668.771 159.188 668.691 158.473 668.691 157.916V139.426L682.529 147.896V150.162C682.529 150.322 682.569 150.918 682.648 151.951C682.728 152.905 683.205 153.82 684.08 154.694C684.478 155.092 685.034 155.49 685.75 155.888C686.466 156.206 687.38 156.365 688.493 156.365C689.606 156.365 690.441 156.206 690.998 155.888C691.634 155.49 692.151 155.092 692.549 154.694C693.344 153.74 693.782 152.786 693.861 151.832C693.941 150.798 693.98 150.082 693.98 149.685V143.005L675.372 131.314C673.782 130.36 672.509 129.366 671.555 128.332C670.68 127.298 670.043 126.344 669.646 125.469C669.248 124.594 668.97 123.878 668.811 123.321C668.731 122.685 668.691 122.367 668.691 122.367V104.354C668.691 102.207 669.09 100.538 669.885 99.3447C670.68 98.152 671.555 97.2774 672.509 96.7207C673.543 96.0845 674.497 95.726 675.372 95.6465C676.247 95.4875 676.803 95.4082 677.042 95.4082H697.44Z" fill="url(#paint22_linear_641_91812)"/>
<path d="M753.506 95.4082V109.126H743.604V167.697H728.455V109.007H719.031V95.4082H753.506Z" fill="url(#paint23_linear_641_91812)"/>
<path d="M794.186 108.649H779.035V125.827H793.946V138.829H779.035V155.769H794.186V167.697H764.602V95.4082H794.186V108.649Z" fill="url(#paint24_linear_641_91812)"/>
<path d="M829.97 95.5273C830.526 95.5274 831.162 95.6472 831.878 95.8857C832.594 96.1243 833.31 96.5215 834.025 97.0781C834.741 97.5553 835.337 98.2713 835.814 99.2256L837.365 102.208L838.916 99.3447C838.916 99.3447 839.036 99.1457 839.274 98.748C839.592 98.271 840.029 97.7935 840.586 97.3164C841.222 96.8393 841.978 96.4025 842.853 96.0049C843.807 95.6073 844.92 95.4083 846.192 95.4082H861.581C861.74 95.4082 862.257 95.4875 863.132 95.6465C864.007 95.726 864.922 96.0439 865.876 96.6006C866.91 97.1573 867.824 97.9931 868.619 99.1064C869.414 100.14 869.812 101.651 869.812 103.639V167.697H855.736V115.329C855.816 115.011 855.816 114.414 855.736 113.54C855.657 112.586 855.259 111.672 854.543 110.797C854.145 110.399 853.589 110.041 852.873 109.723C852.237 109.325 851.362 109.126 850.249 109.126C849.056 109.126 848.101 109.325 847.386 109.723C846.67 110.12 846.113 110.518 845.716 110.916C844.841 111.791 844.364 112.745 844.284 113.778C844.205 114.733 844.205 115.369 844.284 115.688V167.697H830.446V115.568C830.446 115.33 830.407 114.653 830.327 113.54C830.248 112.427 829.77 111.432 828.896 110.558C828.498 110.16 827.941 109.763 827.226 109.365C826.589 108.968 825.675 108.769 824.482 108.769C823.369 108.769 822.454 108.968 821.738 109.365C821.102 109.683 820.626 110.041 820.308 110.438C819.353 111.393 818.796 112.466 818.637 113.659C818.478 114.773 818.438 115.449 818.518 115.688V167.697H805.754V95.4082H829.135C829.144 95.4095 829.422 95.4492 829.97 95.5273Z" fill="url(#paint25_linear_641_91812)"/>
<path fill-rule="evenodd" clip-rule="evenodd" d="M490.198 61.4395C491.895 61.4395 493.575 61.7787 495.143 62.4385C496.71 63.0983 498.134 64.066 499.334 65.2852C500.534 66.5044 501.485 67.952 502.135 69.5449C502.784 71.1378 503.118 72.8452 503.118 74.5693C503.118 76.2935 502.784 78.0008 502.135 79.5938C501.485 81.1867 500.534 82.6344 499.334 83.8535C498.134 85.0726 496.71 86.0394 495.143 86.6992C493.575 87.359 491.895 87.6992 490.198 87.6992C486.772 87.6992 483.485 86.3157 481.062 83.8535C478.639 81.3913 477.277 78.0514 477.277 74.5693C477.277 71.0872 478.639 67.7474 481.062 65.2852C483.485 62.8229 486.772 61.4395 490.198 61.4395ZM490.166 66.0889C487.968 66.0913 485.86 66.9886 484.307 68.583C482.753 70.1774 481.88 72.3391 481.88 74.5928C481.88 75.7094 482.095 76.8151 482.512 77.8467C482.929 78.8784 483.539 79.8159 484.31 80.6055C485.08 81.3951 485.995 82.0209 487.001 82.4482C488.007 82.8755 489.086 83.0957 490.175 83.0957C492.375 83.0956 494.485 82.2001 496.04 80.6055C497.595 79.0109 498.469 76.8478 498.469 74.5928C498.469 72.3377 497.595 70.1747 496.04 68.5801C494.582 67.085 492.636 66.2039 490.586 66.0996L490.175 66.0889C490.172 66.0889 490.169 66.0889 490.166 66.0889Z" fill="url(#paint26_linear_641_91812)"/>
<path d="M465.663 61.4395C468.031 61.4395 470.354 62.0988 472.377 63.3447C474.4 64.5908 476.047 66.3757 477.136 68.5049H471.455C470.001 67.0438 468.075 66.1849 466.047 66.083L465.64 66.0723C465.637 66.0723 465.634 66.0723 465.631 66.0723C463.433 66.0747 461.325 66.9689 459.771 68.5576C458.218 70.1464 457.345 72.3002 457.345 74.5459C457.345 76.793 458.219 78.9481 459.774 80.5371C461.33 82.1261 463.44 83.0196 465.64 83.0195C466.75 83.0195 467.848 82.7913 468.87 82.3496C469.892 81.9079 470.818 81.2618 471.591 80.4482H477.183C476.102 82.6018 474.454 84.4105 472.421 85.6738C470.388 86.9372 468.049 87.6054 465.663 87.6055C462.236 87.6054 458.949 86.227 456.526 83.7734C454.103 81.3199 452.742 77.9922 452.742 74.5225C452.742 71.0527 454.103 67.725 456.526 65.2715C458.949 62.8179 462.236 61.4395 465.663 61.4395Z" fill="url(#paint27_linear_641_91812)"/>
<path d="M555.1 61.5801V79.1328C555.1 80.334 555.74 81.4442 556.78 82.0449C557.821 82.6456 558.987 82.6456 560.027 82.0449C561.067 81.4442 561.708 80.3339 561.708 79.1328V61.5801H566.679V79.1855C566.679 82.1382 565.073 84.8176 562.516 86.2939C559.959 87.7702 556.808 87.7702 554.251 86.2939C551.694 84.8176 550.113 82.1382 550.113 79.1855V61.5801H555.1Z" fill="url(#paint28_linear_641_91812)"/>
<path d="M371.695 61.5801V66.4131H363.284V72.2686H371.695V77.1016H363.284V87.2793H358.266V61.5801H371.695Z" fill="url(#paint29_linear_641_91812)"/>
<path fill-rule="evenodd" clip-rule="evenodd" d="M387.546 87.2793H382.853V83.2822H374.171L371.467 87.2793H365.844L383.502 61.5801H387.546V87.2793ZM377.285 78.6816H382.853V70.4561L377.285 78.6816Z" fill="url(#paint30_linear_641_91812)"/>
<path d="M427.987 61.5801V82.4062H434.551V87.2793H422.969V61.5801H427.987Z" fill="url(#paint31_linear_641_91812)"/>
<path d="M439.591 71.8037L444.865 61.5801H450.149L442.099 77.5195V87.2793H437.151V77.5195L429.102 61.5801H434.386L439.591 71.8037Z" fill="url(#paint32_linear_641_91812)"/>
<path d="M581.376 61.5801V66.5986H577.159V87.2793H572.14V66.5986H567.98V61.5801H581.376Z" fill="url(#paint33_linear_641_91812)"/>
<path d="M595.767 66.4141H587.618V72.2695H595.767V77.1035H587.618V82.4453H595.769V87.2793H582.6V77.1035H582.598V72.2695H582.6V66.4141H582.598V61.5801H595.767V66.4141Z" fill="url(#paint34_linear_641_91812)"/>
<path d="M394.607 61.5801L402.229 79.2393L409.85 61.5801H415.519V87.2783H410.5V74.3594H410.035L404.482 87.2783H399.975L394.421 74.3594H393.956V87.2783H388.938V61.5801H394.607Z" fill="url(#paint35_linear_641_91812)"/>
<path d="M421.613 87.2783H416.824V61.5801H421.613V87.2783Z" fill="url(#paint36_linear_641_91812)"/>
<path d="M517.697 79.2393L525.318 61.5801H530.987V87.2783H525.969V74.3594H525.504L519.951 87.2783H515.443L509.89 74.3594H509.425V87.2783H504.406V61.5801H510.076L517.697 79.2393Z" fill="url(#paint37_linear_641_91812)"/>
<path fill-rule="evenodd" clip-rule="evenodd" d="M540.598 61.5791C542.062 61.5791 543.501 61.964 544.77 62.6963C546.038 63.4286 547.091 64.4817 547.823 65.75C548.556 67.0184 548.941 68.4572 548.941 69.9219C548.941 71.3865 548.556 72.8254 547.823 74.0938C547.091 75.3619 546.038 76.4152 544.77 77.1475C543.501 77.8796 542.063 78.2655 540.599 78.2656H537.373L537.37 87.2773H532.359L532.368 61.5791H540.598ZM537.377 66.4688L537.374 73.2139H540.771C541.976 73.2138 543.089 72.571 543.691 71.5273C544.294 70.4837 544.294 69.1979 543.691 68.1543C543.089 67.1108 541.976 66.4678 540.771 66.4678L537.377 66.4688Z" fill="url(#paint38_linear_641_91812)"/>
<path fill-rule="evenodd" clip-rule="evenodd" d="M607.441 61.5791C610.422 61.5793 613.176 63.1687 614.666 65.75C616.157 68.3316 616.157 71.5122 614.666 74.0938C613.609 75.9237 611.916 77.2518 609.959 77.8721L609.988 77.9033L615.41 87.2773H610.046L602.109 74.0918V87.2773H597.23L597.239 61.5791H607.441ZM602.114 73.2148H607.594C608.799 73.2147 609.912 72.5719 610.515 71.5283C611.117 70.4846 611.117 69.1989 610.515 68.1553C609.95 67.1769 608.936 66.5501 607.818 66.4756L607.594 66.4688H602.116L602.114 73.2148Z" fill="url(#paint39_linear_641_91812)"/>
<path d="M704.152 180.861C704.152 182.854 703.626 184.458 702.575 185.673C701.524 186.888 700.084 187.495 698.255 187.495H695.491V195.46H692.031V187.495H683.82V183.38H698.316C700.118 183.38 701.02 182.54 701.02 180.861H704.152Z" fill="url(#paint40_linear_641_91812)"/>
<path d="M680.843 182.473V187.161H676.993V188.124C676.993 190.308 676.482 192.048 675.458 193.345C674.352 194.71 672.796 195.393 670.789 195.393H655.699V190.643H669.622C672.065 190.643 673.328 189.482 673.41 187.161H655.699V182.473H680.843Z" fill="url(#paint41_linear_641_91812)"/>
<path d="M383.425 175.904V185.65C383.425 188.558 382.585 190.865 380.906 192.571C379.2 194.318 376.832 195.192 373.802 195.192H359.939V190.441H372.88C375.228 190.441 377.009 190.018 378.224 189.172C379.438 188.326 380.047 187.131 380.047 185.589V180.593H358.281V175.904H383.425Z" fill="url(#paint42_linear_641_91812)"/>
<path d="M518.397 175.904V195.192H493.254V190.441H514.917V180.572H493.254V175.904H518.397Z" fill="url(#paint43_linear_641_91812)"/>
<path d="M642.64 175.904V185.65C642.64 188.558 641.8 190.865 640.121 192.571C638.415 194.318 636.047 195.192 633.017 195.192H619.154V190.441H632.095C635.739 190.441 637.998 189.438 638.872 187.432H624.683V183.05H639.262V180.593H623.885C623.544 182.504 622.792 184.047 621.632 185.221C620.472 186.394 619.093 187.057 617.496 187.207V181.739C618.438 181.589 619.243 181.098 619.912 180.266C620.595 179.419 620.936 178.416 620.936 177.256V175.904H642.64Z" fill="url(#paint44_linear_641_91812)"/>
<path d="M728.047 180.757C728.02 182.709 727.65 184.627 726.94 186.511L731.773 195.192H727.514L724.894 190.319C722.491 193.568 719.392 195.192 715.598 195.192H705.094V190.441H714.615C717.618 190.441 720.081 189.472 722.006 187.534C723.78 185.719 724.668 183.562 724.668 181.064V180.593H705.094V175.904H728.047V180.757Z" fill="url(#paint45_linear_641_91812)"/>
<path d="M817.477 180.757C817.449 182.709 817.08 184.627 816.37 186.511L821.203 195.192H816.943L814.323 190.318C811.921 193.567 808.822 195.192 805.027 195.192H794.523V190.441H804.044C807.047 190.441 809.511 189.472 811.436 187.534C813.21 185.719 814.098 183.562 814.098 181.064V180.593H794.523V175.904H817.477V180.757Z" fill="url(#paint46_linear_641_91812)"/>
<path d="M852.899 189.377V190.441H869.976V189.377L863.321 178.832H867.744L874.398 189.459V195.192H848.477V189.459L856.892 175.904H861.314L852.899 189.377Z" fill="url(#paint47_linear_641_91812)"/>
<path d="M407.074 187.942L432.219 190.911V195.191L407.074 192.223V187.942Z" fill="url(#paint48_linear_641_91812)"/>
<path d="M459.453 185.649C459.453 188.557 458.614 190.864 456.935 192.57C455.228 194.317 452.859 195.191 449.829 195.191H438.548V190.44H448.908C451.256 190.44 453.037 190.018 454.252 189.172C455.467 188.326 456.075 187.13 456.075 185.588V175.902H459.453V185.649Z" fill="url(#paint49_linear_641_91812)"/>
<path d="M545.629 185.649C545.629 188.557 544.789 190.864 543.11 192.57C541.404 194.317 539.035 195.191 536.005 195.191H520.484V190.44H535.084C537.432 190.44 539.213 190.018 540.428 189.172C541.643 188.326 542.249 187.13 542.249 185.588V175.902H545.629V185.649Z" fill="url(#paint50_linear_641_91812)"/>
<path d="M550.013 180.592H563.874C564.12 181.561 564.639 182.366 565.431 183.008C566.236 183.636 567.15 183.949 568.174 183.949C569.689 183.949 570.89 183.329 571.777 182.087V185.281H550.013V185.588C550.013 187.13 550.619 188.326 551.834 189.172C553.049 190.018 554.83 190.44 557.178 190.44H571.777V195.191H556.257C553.227 195.191 550.858 194.317 549.151 192.57C547.472 190.864 546.633 188.557 546.633 185.649V175.902H550.013V180.592Z" fill="url(#paint51_linear_641_91812)"/>
<path d="M756.214 185.649C756.214 188.557 755.374 190.864 753.695 192.57C751.989 194.317 749.621 195.191 746.591 195.191H732.729V190.44H745.669C748.017 190.44 749.799 190.017 751.014 189.171C752.228 188.325 752.836 187.13 752.836 185.588V180.592H737.459C737.118 182.503 736.366 184.046 735.206 185.22C734.046 186.393 732.667 187.056 731.07 187.206V181.739C732.012 181.589 732.817 181.097 733.486 180.265C734.169 179.418 734.51 178.415 734.51 177.255V175.924H756.214V185.649Z" fill="url(#paint52_linear_641_91812)"/>
<path d="M793.006 185.649C793.006 188.557 792.166 190.864 790.487 192.57C788.781 194.317 786.412 195.191 783.382 195.191H767.863V190.44H782.461C784.809 190.44 786.592 190.018 787.807 189.172C789.021 188.326 789.628 187.13 789.628 185.588V175.904H793.006V185.649Z" fill="url(#paint53_linear_641_91812)"/>
<path d="M847.533 182.271V186.96H843.685V187.924C843.685 190.108 843.172 191.847 842.148 193.144C841.043 194.509 839.486 195.191 837.479 195.191H822.391V190.44H836.313C838.604 190.44 839.857 189.421 840.072 187.381L840.102 186.96H822.391V182.271H847.533Z" fill="url(#paint54_linear_641_91812)"/>
<path d="M405.005 180.592V184.482C405.005 186.038 404.514 187.355 403.531 188.434C402.507 189.567 401.197 190.133 399.6 190.133H396.917C396.849 191.662 396.432 192.877 395.668 193.778C394.849 194.72 393.716 195.19 392.27 195.19H385.492V191.075H390.979C392.891 191.075 393.846 190.146 393.846 188.29V186.55H400.234C400.862 186.55 401.387 186.359 401.811 185.977C402.234 185.594 402.445 185.157 402.445 184.666H385.492V180.592H405.005Z" fill="url(#paint55_linear_641_91812)"/>
<path d="M589.39 191.075H592.624V195.19H573.152V191.075H586.379V184.666H574.77V180.592H589.39V191.075Z" fill="url(#paint56_linear_641_91812)"/>
<path d="M407.074 181.595L432.219 184.563V188.843L407.074 185.874V181.595Z" fill="url(#paint57_linear_641_91812)"/>
<path d="M438.26 187.799H434.309V175.902H438.26V187.799Z" fill="url(#paint58_linear_641_91812)"/>
<path d="M485.926 187.778H461.52V183.09H485.926V187.778Z" fill="url(#paint59_linear_641_91812)"/>
<path d="M615.296 187.778H592.234V183.09H615.296V187.778Z" fill="url(#paint60_linear_641_91812)"/>
<path d="M781.786 187.186H767.863V182.496H781.786V187.186Z" fill="url(#paint61_linear_641_91812)"/>
<path fill-rule="evenodd" clip-rule="evenodd" d="M568.174 175.902C569.17 175.902 570.017 176.258 570.713 176.968C571.422 177.664 571.777 178.511 571.777 179.507C571.777 180.503 571.423 181.357 570.713 182.066C570.017 182.762 569.17 183.11 568.174 183.11C567.178 183.11 566.324 182.762 565.614 182.066C564.918 181.357 564.569 180.503 564.569 179.507C564.569 178.51 564.918 177.664 565.614 176.968C566.324 176.258 567.177 175.902 568.174 175.902ZM568.174 177.664C567.669 177.664 567.232 177.848 566.863 178.217C566.508 178.572 566.331 179.002 566.331 179.507C566.331 180.012 566.508 180.45 566.863 180.818C567.232 181.173 567.669 181.349 568.174 181.349C568.679 181.349 569.108 181.173 569.463 180.818C569.831 180.45 570.016 180.012 570.016 179.507C570.016 179.002 569.831 178.572 569.463 178.217C569.108 177.848 568.679 177.664 568.174 177.664Z" fill="url(#paint62_linear_641_91812)"/>
<path d="M407.074 175.248L432.219 178.217V182.475L407.074 179.506V175.248Z" fill="url(#paint63_linear_641_91812)"/>
<path d="M674.007 180.794H656.664V176.105H674.007V180.794Z" fill="url(#paint64_linear_641_91812)"/>
<path d="M677.425 180.794H674.824V176.105H677.425V180.794Z" fill="url(#paint65_linear_641_91812)"/>
<path d="M680.846 180.794H678.266V176.105H680.846V180.794Z" fill="url(#paint66_linear_641_91812)"/>
<path d="M647.011 175.93V176.829H645.617V180.646H644.433V176.829H643.039V175.93H647.011Z" fill="url(#paint67_linear_641_91812)"/>
<path d="M649.908 178.258L650.95 175.93H652.315V180.646H651.138V177.52L650.279 179.537H649.472L648.613 177.52V180.646H647.498V175.93H648.863L649.908 178.258Z" fill="url(#paint68_linear_641_91812)"/>
<path d="M535.043 180.592H520.484V175.902H535.043V180.592Z" fill="url(#paint69_linear_641_91812)"/>
<path d="M781.786 180.592H767.863V175.904H781.786V180.592Z" fill="url(#paint70_linear_641_91812)"/>
<path d="M846.571 180.592H823.353V175.904H846.571V180.592Z" fill="url(#paint71_linear_641_91812)"/>
</g>
<defs>
<filter id="filter0_d_641_91812" x="114.5" y="22.5" width="790.5" height="222" filterUnits="userSpaceOnUse" color-interpolation-filters="sRGB">
<feFlood flood-opacity="0" result="BackgroundImageFix"/>
<feColorMatrix in="SourceAlpha" type="matrix" values="0 0 0 0 0 0 0 0 0 0 0 0 0 0 0 0 0 0 127 0" result="hardAlpha"/>
<feOffset dy="5"/>
<feGaussianBlur stdDeviation="7.5"/>
<feColorMatrix type="matrix" values="0 0 0 0 0 0 0 0 0 0 0 0 0 0 0 0 0 0 0.5 0"/>
<feBlend mode="normal" in2="BackgroundImageFix" result="effect1_dropShadow_641_91812"/>
<feBlend mode="normal" in="SourceGraphic" in2="effect1_dropShadow_641_91812" result="shape"/>
</filter>
<linearGradient id="paint0_linear_641_91812" x1="225.501" y1="63.4867" x2="225.501" y2="192.934" gradientUnits="userSpaceOnUse">
<stop stop-color="#FFE793"/>
<stop offset="1" stop-color="#FFC600"/>
</linearGradient>
<linearGradient id="paint1_linear_641_91812" x1="225.443" y1="87.0527" x2="225.443" y2="137.07" gradientUnits="userSpaceOnUse">
<stop stop-color="#504A4B"/>
<stop offset="1" stop-color="#231F20"/>
</linearGradient>
<linearGradient id="paint2_linear_641_91812" x1="225.443" y1="87.0527" x2="225.443" y2="137.07" gradientUnits="userSpaceOnUse">
<stop stop-color="#504A4B"/>
<stop offset="1" stop-color="#231F20"/>
</linearGradient>
<linearGradient id="paint3_linear_641_91812" x1="225.501" y1="63.4863" x2="225.501" y2="192.933" gradientUnits="userSpaceOnUse">
<stop stop-color="#504A4B"/>
<stop offset="1" stop-color="#231F20"/>
</linearGradient>
<linearGradient id="paint4_linear_641_91812" x1="225.501" y1="63.4863" x2="225.501" y2="192.933" gradientUnits="userSpaceOnUse">
<stop stop-color="#504A4B"/>
<stop offset="1" stop-color="#231F20"/>
</linearGradient>
<linearGradient id="paint5_linear_641_91812" x1="615.643" y1="91.8281" x2="615.643" y2="171.394" gradientUnits="userSpaceOnUse">
<stop stop-color="#2C2C2C"/>
<stop offset="1"/>
</linearGradient>
<linearGradient id="paint6_linear_641_91812" x1="615.643" y1="91.8281" x2="615.643" y2="171.394" gradientUnits="userSpaceOnUse">
<stop stop-color="#2C2C2C"/>
<stop offset="1"/>
</linearGradient>
<linearGradient id="paint7_linear_641_91812" x1="615.643" y1="91.8281" x2="615.643" y2="171.394" gradientUnits="userSpaceOnUse">
<stop stop-color="#2C2C2C"/>
<stop offset="1"/>
</linearGradient>
<linearGradient id="paint8_linear_641_91812" x1="615.643" y1="91.8281" x2="615.643" y2="171.394" gradientUnits="userSpaceOnUse">
<stop stop-color="#2C2C2C"/>
<stop offset="1"/>
</linearGradient>
<linearGradient id="paint9_linear_641_91812" x1="615.643" y1="91.8281" x2="615.643" y2="171.394" gradientUnits="userSpaceOnUse">
<stop stop-color="#2C2C2C"/>
<stop offset="1"/>
</linearGradient>
<linearGradient id="paint10_linear_641_91812" x1="615.643" y1="91.8281" x2="615.643" y2="171.394" gradientUnits="userSpaceOnUse">
<stop stop-color="#2C2C2C"/>
<stop offset="1"/>
</linearGradient>
<linearGradient id="paint11_linear_641_91812" x1="615.643" y1="91.8281" x2="615.643" y2="171.394" gradientUnits="userSpaceOnUse">
<stop stop-color="#2C2C2C"/>
<stop offset="1"/>
</linearGradient>
<linearGradient id="paint12_linear_641_91812" x1="615.643" y1="91.8281" x2="615.643" y2="171.394" gradientUnits="userSpaceOnUse">
<stop stop-color="#2C2C2C"/>
<stop offset="1"/>
</linearGradient>
<linearGradient id="paint13_linear_641_91812" x1="615.643" y1="91.8281" x2="615.643" y2="171.394" gradientUnits="userSpaceOnUse">
<stop stop-color="#2C2C2C"/>
<stop offset="1"/>
</linearGradient>
<linearGradient id="paint14_linear_641_91812" x1="615.643" y1="91.8281" x2="615.643" y2="171.394" gradientUnits="userSpaceOnUse">
<stop stop-color="#2C2C2C"/>
<stop offset="1"/>
</linearGradient>
<linearGradient id="paint15_linear_641_91812" x1="380.618" y1="108.053" x2="380.618" y2="154.576" gradientUnits="userSpaceOnUse">
<stop stop-color="#2C2C2C"/>
<stop offset="1"/>
</linearGradient>
<linearGradient id="paint16_linear_641_91812" x1="615.643" y1="95.4062" x2="615.643" y2="167.815" gradientUnits="userSpaceOnUse">
<stop stop-color="#FFE793"/>
<stop offset="1" stop-color="#FFC600"/>
</linearGradient>
<linearGradient id="paint17_linear_641_91812" x1="615.643" y1="95.4062" x2="615.643" y2="167.815" gradientUnits="userSpaceOnUse">
<stop stop-color="#FFE793"/>
<stop offset="1" stop-color="#FFC600"/>
</linearGradient>
<linearGradient id="paint18_linear_641_91812" x1="615.643" y1="95.4062" x2="615.643" y2="167.815" gradientUnits="userSpaceOnUse">
<stop stop-color="#FFE793"/>
<stop offset="1" stop-color="#FFC600"/>
</linearGradient>
<linearGradient id="paint19_linear_641_91812" x1="615.643" y1="95.4062" x2="615.643" y2="167.815" gradientUnits="userSpaceOnUse">
<stop stop-color="#FFE793"/>
<stop offset="1" stop-color="#FFC600"/>
</linearGradient>
<linearGradient id="paint20_linear_641_91812" x1="615.643" y1="95.4062" x2="615.643" y2="167.815" gradientUnits="userSpaceOnUse">
<stop stop-color="#FFE793"/>
<stop offset="1" stop-color="#FFC600"/>
</linearGradient>
<linearGradient id="paint21_linear_641_91812" x1="615.643" y1="95.4062" x2="615.643" y2="167.815" gradientUnits="userSpaceOnUse">
<stop stop-color="#FFE793"/>
<stop offset="1" stop-color="#FFC600"/>
</linearGradient>
<linearGradient id="paint22_linear_641_91812" x1="615.643" y1="95.4062" x2="615.643" y2="167.815" gradientUnits="userSpaceOnUse">
<stop stop-color="#FFE793"/>
<stop offset="1" stop-color="#FFC600"/>
</linearGradient>
<linearGradient id="paint23_linear_641_91812" x1="615.643" y1="95.4062" x2="615.643" y2="167.815" gradientUnits="userSpaceOnUse">
<stop stop-color="#FFE793"/>
<stop offset="1" stop-color="#FFC600"/>
</linearGradient>
<linearGradient id="paint24_linear_641_91812" x1="615.643" y1="95.4062" x2="615.643" y2="167.815" gradientUnits="userSpaceOnUse">
<stop stop-color="#FFE793"/>
<stop offset="1" stop-color="#FFC600"/>
</linearGradient>
<linearGradient id="paint25_linear_641_91812" x1="615.643" y1="95.4062" x2="615.643" y2="167.815" gradientUnits="userSpaceOnUse">
<stop stop-color="#FFE793"/>
<stop offset="1" stop-color="#FFC600"/>
</linearGradient>
<linearGradient id="paint26_linear_641_91812" x1="487.025" y1="61.4395" x2="487.025" y2="87.6992" gradientUnits="userSpaceOnUse">
<stop stop-color="#2C2C2C"/>
<stop offset="1"/>
</linearGradient>
<linearGradient id="paint27_linear_641_91812" x1="487.025" y1="61.4395" x2="487.025" y2="87.6992" gradientUnits="userSpaceOnUse">
<stop stop-color="#2C2C2C"/>
<stop offset="1"/>
</linearGradient>
<linearGradient id="paint28_linear_641_91812" x1="487.025" y1="61.4395" x2="487.025" y2="87.6992" gradientUnits="userSpaceOnUse">
<stop stop-color="#2C2C2C"/>
<stop offset="1"/>
</linearGradient>
<linearGradient id="paint29_linear_641_91812" x1="487.025" y1="61.4395" x2="487.025" y2="87.6992" gradientUnits="userSpaceOnUse">
<stop stop-color="#2C2C2C"/>
<stop offset="1"/>
</linearGradient>
<linearGradient id="paint30_linear_641_91812" x1="487.025" y1="61.4395" x2="487.025" y2="87.6992" gradientUnits="userSpaceOnUse">
<stop stop-color="#2C2C2C"/>
<stop offset="1"/>
</linearGradient>
<linearGradient id="paint31_linear_641_91812" x1="487.025" y1="61.4395" x2="487.025" y2="87.6992" gradientUnits="userSpaceOnUse">
<stop stop-color="#2C2C2C"/>
<stop offset="1"/>
</linearGradient>
<linearGradient id="paint32_linear_641_91812" x1="487.025" y1="61.4395" x2="487.025" y2="87.6992" gradientUnits="userSpaceOnUse">
<stop stop-color="#2C2C2C"/>
<stop offset="1"/>
</linearGradient>
<linearGradient id="paint33_linear_641_91812" x1="487.025" y1="61.4395" x2="487.025" y2="87.6992" gradientUnits="userSpaceOnUse">
<stop stop-color="#2C2C2C"/>
<stop offset="1"/>
</linearGradient>
<linearGradient id="paint34_linear_641_91812" x1="487.025" y1="61.4395" x2="487.025" y2="87.6992" gradientUnits="userSpaceOnUse">
<stop stop-color="#2C2C2C"/>
<stop offset="1"/>
</linearGradient>
<linearGradient id="paint35_linear_641_91812" x1="487.025" y1="61.4395" x2="487.025" y2="87.6992" gradientUnits="userSpaceOnUse">
<stop stop-color="#2C2C2C"/>
<stop offset="1"/>
</linearGradient>
<linearGradient id="paint36_linear_641_91812" x1="487.025" y1="61.4395" x2="487.025" y2="87.6992" gradientUnits="userSpaceOnUse">
<stop stop-color="#2C2C2C"/>
<stop offset="1"/>
</linearGradient>
<linearGradient id="paint37_linear_641_91812" x1="487.025" y1="61.4395" x2="487.025" y2="87.6992" gradientUnits="userSpaceOnUse">
<stop stop-color="#2C2C2C"/>
<stop offset="1"/>
</linearGradient>
<linearGradient id="paint38_linear_641_91812" x1="487.025" y1="61.4395" x2="487.025" y2="87.6992" gradientUnits="userSpaceOnUse">
<stop stop-color="#2C2C2C"/>
<stop offset="1"/>
</linearGradient>
<linearGradient id="paint39_linear_641_91812" x1="487.025" y1="61.4395" x2="487.025" y2="87.6992" gradientUnits="userSpaceOnUse">
<stop stop-color="#2C2C2C"/>
<stop offset="1"/>
</linearGradient>
<linearGradient id="paint40_linear_641_91812" x1="616.34" y1="175.248" x2="616.34" y2="195.46" gradientUnits="userSpaceOnUse">
<stop stop-color="#504A4B"/>
<stop offset="1" stop-color="#231F20"/>
</linearGradient>
<linearGradient id="paint41_linear_641_91812" x1="616.34" y1="175.248" x2="616.34" y2="195.46" gradientUnits="userSpaceOnUse">
<stop stop-color="#504A4B"/>
<stop offset="1" stop-color="#231F20"/>
</linearGradient>
<linearGradient id="paint42_linear_641_91812" x1="616.34" y1="175.248" x2="616.34" y2="195.46" gradientUnits="userSpaceOnUse">
<stop stop-color="#504A4B"/>
<stop offset="1" stop-color="#231F20"/>
</linearGradient>
<linearGradient id="paint43_linear_641_91812" x1="616.34" y1="175.248" x2="616.34" y2="195.46" gradientUnits="userSpaceOnUse">
<stop stop-color="#504A4B"/>
<stop offset="1" stop-color="#231F20"/>
</linearGradient>
<linearGradient id="paint44_linear_641_91812" x1="616.34" y1="175.248" x2="616.34" y2="195.46" gradientUnits="userSpaceOnUse">
<stop stop-color="#504A4B"/>
<stop offset="1" stop-color="#231F20"/>
</linearGradient>
<linearGradient id="paint45_linear_641_91812" x1="616.34" y1="175.248" x2="616.34" y2="195.46" gradientUnits="userSpaceOnUse">
<stop stop-color="#504A4B"/>
<stop offset="1" stop-color="#231F20"/>
</linearGradient>
<linearGradient id="paint46_linear_641_91812" x1="616.34" y1="175.248" x2="616.34" y2="195.46" gradientUnits="userSpaceOnUse">
<stop stop-color="#504A4B"/>
<stop offset="1" stop-color="#231F20"/>
</linearGradient>
<linearGradient id="paint47_linear_641_91812" x1="616.34" y1="175.248" x2="616.34" y2="195.46" gradientUnits="userSpaceOnUse">
<stop stop-color="#504A4B"/>
<stop offset="1" stop-color="#231F20"/>
</linearGradient>
<linearGradient id="paint48_linear_641_91812" x1="616.34" y1="175.248" x2="616.34" y2="195.46" gradientUnits="userSpaceOnUse">
<stop stop-color="#504A4B"/>
<stop offset="1" stop-color="#231F20"/>
</linearGradient>
<linearGradient id="paint49_linear_641_91812" x1="616.34" y1="175.248" x2="616.34" y2="195.46" gradientUnits="userSpaceOnUse">
<stop stop-color="#504A4B"/>
<stop offset="1" stop-color="#231F20"/>
</linearGradient>
<linearGradient id="paint50_linear_641_91812" x1="616.34" y1="175.248" x2="616.34" y2="195.46" gradientUnits="userSpaceOnUse">
<stop stop-color="#504A4B"/>
<stop offset="1" stop-color="#231F20"/>
</linearGradient>
<linearGradient id="paint51_linear_641_91812" x1="616.34" y1="175.248" x2="616.34" y2="195.46" gradientUnits="userSpaceOnUse">
<stop stop-color="#504A4B"/>
<stop offset="1" stop-color="#231F20"/>
</linearGradient>
<linearGradient id="paint52_linear_641_91812" x1="616.34" y1="175.248" x2="616.34" y2="195.46" gradientUnits="userSpaceOnUse">
<stop stop-color="#504A4B"/>
<stop offset="1" stop-color="#231F20"/>
</linearGradient>
<linearGradient id="paint53_linear_641_91812" x1="616.34" y1="175.248" x2="616.34" y2="195.46" gradientUnits="userSpaceOnUse">
<stop stop-color="#504A4B"/>
<stop offset="1" stop-color="#231F20"/>
</linearGradient>
<linearGradient id="paint54_linear_641_91812" x1="616.34" y1="175.248" x2="616.34" y2="195.46" gradientUnits="userSpaceOnUse">
<stop stop-color="#504A4B"/>
<stop offset="1" stop-color="#231F20"/>
</linearGradient>
<linearGradient id="paint55_linear_641_91812" x1="616.34" y1="175.248" x2="616.34" y2="195.46" gradientUnits="userSpaceOnUse">
<stop stop-color="#504A4B"/>
<stop offset="1" stop-color="#231F20"/>
</linearGradient>
<linearGradient id="paint56_linear_641_91812" x1="616.34" y1="175.248" x2="616.34" y2="195.46" gradientUnits="userSpaceOnUse">
<stop stop-color="#504A4B"/>
<stop offset="1" stop-color="#231F20"/>
</linearGradient>
<linearGradient id="paint57_linear_641_91812" x1="616.34" y1="175.248" x2="616.34" y2="195.46" gradientUnits="userSpaceOnUse">
<stop stop-color="#504A4B"/>
<stop offset="1" stop-color="#231F20"/>
</linearGradient>
<linearGradient id="paint58_linear_641_91812" x1="616.34" y1="175.248" x2="616.34" y2="195.46" gradientUnits="userSpaceOnUse">
<stop stop-color="#504A4B"/>
<stop offset="1" stop-color="#231F20"/>
</linearGradient>
<linearGradient id="paint59_linear_641_91812" x1="616.34" y1="175.248" x2="616.34" y2="195.46" gradientUnits="userSpaceOnUse">
<stop stop-color="#504A4B"/>
<stop offset="1" stop-color="#231F20"/>
</linearGradient>
<linearGradient id="paint60_linear_641_91812" x1="616.34" y1="175.248" x2="616.34" y2="195.46" gradientUnits="userSpaceOnUse">
<stop stop-color="#504A4B"/>
<stop offset="1" stop-color="#231F20"/>
</linearGradient>
<linearGradient id="paint61_linear_641_91812" x1="616.34" y1="175.248" x2="616.34" y2="195.46" gradientUnits="userSpaceOnUse">
<stop stop-color="#504A4B"/>
<stop offset="1" stop-color="#231F20"/>
</linearGradient>
<linearGradient id="paint62_linear_641_91812" x1="616.34" y1="175.248" x2="616.34" y2="195.46" gradientUnits="userSpaceOnUse">
<stop stop-color="#504A4B"/>
<stop offset="1" stop-color="#231F20"/>
</linearGradient>
<linearGradient id="paint63_linear_641_91812" x1="616.34" y1="175.248" x2="616.34" y2="195.46" gradientUnits="userSpaceOnUse">
<stop stop-color="#504A4B"/>
<stop offset="1" stop-color="#231F20"/>
</linearGradient>
<linearGradient id="paint64_linear_641_91812" x1="616.34" y1="175.248" x2="616.34" y2="195.46" gradientUnits="userSpaceOnUse">
<stop stop-color="#504A4B"/>
<stop offset="1" stop-color="#231F20"/>
</linearGradient>
<linearGradient id="paint65_linear_641_91812" x1="616.34" y1="175.248" x2="616.34" y2="195.46" gradientUnits="userSpaceOnUse">
<stop stop-color="#504A4B"/>
<stop offset="1" stop-color="#231F20"/>
</linearGradient>
<linearGradient id="paint66_linear_641_91812" x1="616.34" y1="175.248" x2="616.34" y2="195.46" gradientUnits="userSpaceOnUse">
<stop stop-color="#504A4B"/>
<stop offset="1" stop-color="#231F20"/>
</linearGradient>
<linearGradient id="paint67_linear_641_91812" x1="616.34" y1="175.248" x2="616.34" y2="195.46" gradientUnits="userSpaceOnUse">
<stop stop-color="#504A4B"/>
<stop offset="1" stop-color="#231F20"/>
</linearGradient>
<linearGradient id="paint68_linear_641_91812" x1="616.34" y1="175.248" x2="616.34" y2="195.46" gradientUnits="userSpaceOnUse">
<stop stop-color="#504A4B"/>
<stop offset="1" stop-color="#231F20"/>
</linearGradient>
<linearGradient id="paint69_linear_641_91812" x1="616.34" y1="175.248" x2="616.34" y2="195.46" gradientUnits="userSpaceOnUse">
<stop stop-color="#504A4B"/>
<stop offset="1" stop-color="#231F20"/>
</linearGradient>
<linearGradient id="paint70_linear_641_91812" x1="616.34" y1="175.248" x2="616.34" y2="195.46" gradientUnits="userSpaceOnUse">
<stop stop-color="#504A4B"/>
<stop offset="1" stop-color="#231F20"/>
</linearGradient>
<linearGradient id="paint71_linear_641_91812" x1="616.34" y1="175.248" x2="616.34" y2="195.46" gradientUnits="userSpaceOnUse">
<stop stop-color="#504A4B"/>
<stop offset="1" stop-color="#231F20"/>
</linearGradient>
</defs>
</svg>
