<svg width="512" height="512" viewBox="0 0 512 512" fill="none" xmlns="http://www.w3.org/2000/svg">
<g clip-path="url(#clip0_622_229)">
<g filter="url(#filter0_d_622_229)">
<path fill-rule="evenodd" clip-rule="evenodd" d="M233.676 32.8829C245.803 20.7265 265.379 20.536 277.739 32.3126L278.322 32.8829L340.996 95.7051C353.276 108.014 353.275 127.94 340.994 140.248L315.45 165.846C317.982 166.803 321.123 168.213 324.185 170.254L324.186 170.253L324.746 170.634C330.47 174.606 333.982 179.51 335.979 182.8C338.178 186.422 339.716 190.061 340.805 193.064C342.972 199.043 344.366 205.35 345.28 210.37C346.229 215.58 346.847 220.45 347.227 223.946C347.419 225.719 347.557 227.197 347.648 228.262C347.694 228.795 347.729 229.228 347.754 229.546C347.766 229.705 347.776 229.835 347.783 229.936C347.787 229.986 347.79 230.029 347.792 230.064C347.793 230.081 347.794 230.097 347.795 230.11C347.795 230.117 347.796 230.123 347.797 230.129C347.797 230.132 347.797 230.137 347.797 230.137C347.789 230.141 347.938 232.201 347.938 232.201C347.938 232.201 347.786 234.26 347.797 234.265C347.797 234.265 347.797 234.271 347.797 234.273C347.796 234.279 347.795 234.286 347.795 234.292C347.794 234.305 347.793 234.322 347.792 234.339C347.79 234.374 347.787 234.416 347.783 234.466C347.776 234.566 347.766 234.698 347.754 234.857C347.729 235.174 347.694 235.608 347.648 236.141C347.557 237.205 347.419 238.684 347.227 240.456C346.847 243.952 346.229 248.822 345.28 254.032C344.366 259.053 342.973 265.359 340.806 271.339C339.717 274.342 338.179 277.981 335.98 281.603C334.239 284.472 331.345 288.566 326.838 292.201C336.003 305.832 341.349 322.248 341.349 339.899C341.348 368.666 327.149 394.151 305.355 409.65C305.989 409.754 306.614 409.86 307.231 409.968C313.969 411.15 321.226 412.836 327.496 415.437C330.501 416.683 335.041 418.846 339.323 422.518C343.393 426.007 351.119 434.352 351.119 447.595C351.119 460.834 343.397 469.179 339.326 472.67C335.043 476.343 330.504 478.505 327.498 479.752C321.227 482.354 313.969 484.04 307.231 485.222C293.268 487.671 275.172 489.018 256 489.018C236.828 489.018 218.731 487.671 204.769 485.222C198.031 484.04 190.773 482.354 184.502 479.752C181.496 478.505 176.957 476.342 172.674 472.669C168.666 469.232 161.122 461.092 160.888 448.211L160.882 447.595L160.888 446.978C161.122 434.093 168.671 425.953 172.677 422.518C176.959 418.846 181.499 416.684 184.504 415.438C190.774 412.836 198.031 411.15 204.769 409.968C205.384 409.86 206.008 409.754 206.64 409.65C184.845 394.151 170.647 368.666 170.646 339.899C170.646 322.247 175.993 305.831 185.159 292.199C180.653 288.564 177.761 284.468 176.021 281.6C173.823 277.978 172.284 274.339 171.196 271.337C169.029 265.358 167.637 259.052 166.723 254.032C165.774 248.822 165.156 243.952 164.776 240.456C164.584 238.684 164.446 237.205 164.354 236.141C164.309 235.608 164.273 235.174 164.249 234.857C164.237 234.698 164.227 234.566 164.22 234.466C164.216 234.416 164.213 234.374 164.211 234.339C164.21 234.322 164.209 234.305 164.208 234.292C164.208 234.286 164.206 234.279 164.206 234.273C164.206 234.271 164.206 234.265 164.206 234.265C164.219 234.26 164.064 232.201 164.064 232.201C164.064 232.201 164.214 230.141 164.206 230.137C164.206 230.137 164.206 230.132 164.206 230.129C164.206 230.123 164.208 230.117 164.208 230.11C164.209 230.097 164.21 230.081 164.211 230.064C164.213 230.029 164.216 229.986 164.22 229.936C164.227 229.835 164.237 229.705 164.249 229.546C164.273 229.228 164.309 228.795 164.354 228.262C164.446 227.197 164.584 225.719 164.776 223.946C165.156 220.45 165.774 215.581 166.723 210.371C167.637 205.351 169.029 199.046 171.196 193.066C172.284 190.064 173.823 186.426 176.021 182.804C178.076 179.417 181.737 174.319 187.764 170.288C187.77 170.284 187.777 170.279 187.784 170.274C187.793 170.269 187.801 170.263 187.81 170.257C190.871 168.215 194.014 166.805 196.548 165.847L171.004 140.248C158.723 127.941 158.722 108.014 171.002 95.7051L233.676 32.8829Z" fill="white"/>
<path d="M190.882 447.595C190.882 441.285 220.03 436.172 256 436.172C291.969 436.172 321.119 441.285 321.119 447.595C321.119 453.906 291.971 459.018 256 459.018C220.028 459.018 190.882 453.906 190.882 447.595Z" fill="url(#paint0_linear_622_229)"/>
<path d="M200.649 339.899C200.649 309.251 225.423 284.417 256.001 284.417C286.577 284.417 311.351 309.251 311.351 339.899C311.351 370.546 286.575 395.381 256.001 395.381C225.423 395.381 200.649 370.546 200.649 339.899Z" fill="url(#paint1_linear_622_229)"/>
<path d="M204.452 195.218C196.306 200.649 194.138 232.2 194.138 232.2C194.138 232.2 196.306 263.752 204.452 269.183C212.588 274.625 256.004 277.888 256.004 277.888C256.004 277.888 299.422 274.625 307.554 269.183C315.703 263.752 317.871 232.2 317.871 232.2C317.871 232.2 315.703 200.647 307.554 195.218C299.422 189.772 256.004 186.509 256.004 186.509C256.004 186.509 212.588 189.772 204.452 195.218Z" fill="url(#paint2_linear_622_229)"/>
<path d="M255.995 52.9832L320.834 117.976L255.995 182.953L191.156 117.976L255.995 52.9832Z" fill="url(#paint3_linear_622_229)"/>
</g>
</g>
<defs>
<filter id="filter0_d_622_229" x="2" y="-0.379395" width="508" height="521.397" filterUnits="userSpaceOnUse" color-interpolation-filters="sRGB">
<feFlood flood-opacity="0" result="BackgroundImageFix"/>
<feColorMatrix in="SourceAlpha" type="matrix" values="0 0 0 0 0 0 0 0 0 0 0 0 0 0 0 0 0 0 127 0" result="hardAlpha"/>
<feOffset dy="4"/>
<feGaussianBlur stdDeviation="14"/>
<feColorMatrix type="matrix" values="0 0 0 0 0 0 0 0 0 0 0 0 0 0 0 0 0 0 0.5 0"/>
<feBlend mode="normal" in2="BackgroundImageFix" result="effect1_dropShadow_622_229"/>
<feBlend mode="normal" in="SourceGraphic" in2="effect1_dropShadow_622_229" result="shape"/>
</filter>
<linearGradient id="paint0_linear_622_229" x1="256" y1="436.172" x2="256" y2="459.018" gradientUnits="userSpaceOnUse">
<stop stop-color="#C3C3C3"/>
<stop offset="1" stop-color="#888888"/>
</linearGradient>
<linearGradient id="paint1_linear_622_229" x1="256" y1="284.417" x2="256" y2="395.381" gradientUnits="userSpaceOnUse">
<stop stop-color="#FFF49F"/>
<stop offset="1" stop-color="#FFE41B"/>
</linearGradient>
<linearGradient id="paint2_linear_622_229" x1="256.004" y1="186.509" x2="256.004" y2="277.888" gradientUnits="userSpaceOnUse">
<stop stop-color="#5050E3"/>
<stop offset="1" stop-color="#0000A0"/>
</linearGradient>
<linearGradient id="paint3_linear_622_229" x1="255.995" y1="52.9832" x2="255.995" y2="182.953" gradientUnits="userSpaceOnUse">
<stop stop-color="#FF6C6C"/>
<stop offset="1" stop-color="#FF0000"/>
</linearGradient>
<clipPath id="clip0_622_229">
<rect width="512" height="512" fill="white"/>
</clipPath>
</defs>
</svg>
