<svg width="512" height="512" viewBox="0 0 512 512" fill="none" xmlns="http://www.w3.org/2000/svg">
<g filter="url(#filter0_d_627_214)">
<path d="M394.87 74.0002L400.5 74L405.578 74.0002H448.533C473.713 74.0003 488.585 102.22 474.354 122.991L275.381 413.404C274.589 414.559 273.728 415.649 272.807 416.671L267.486 424.497C261.659 433.069 251.966 438.199 241.602 438.199H199.955H193H185.941H143.153C132.798 438.199 123.113 433.079 117.284 424.521L37.5899 307.521C23.4371 286.743 38.318 258.6 63.458 258.6H106.247L116.843 258.601H160.591C170.632 258.601 180.042 263.416 185.918 271.51L186.476 272.303L193.211 282.21L327.87 87.4963L328.429 86.7141C334.317 78.7341 343.658 74.0004 353.613 74.0002H394.87Z" fill="white"/>
<path d="M188.812 407.405H142.729L61 288.48H107.083L188.812 407.405Z" fill="url(#paint0_linear_627_214)"/>
<path d="M242.476 407.405H196.393L114.663 288.48H160.746L242.476 407.405Z" fill="url(#paint1_linear_627_214)"/>
<path d="M188.812 407.405H183.824L102.095 288.479H107.083L188.812 407.405Z" fill="url(#paint2_linear_627_214)"/>
<path d="M242.476 407.404H237.487L155.758 288.479H160.746L242.476 407.404Z" fill="url(#paint3_linear_627_214)"/>
<path d="M188.812 407.404H142.729L351.254 104H397.338L188.812 407.404Z" fill="url(#paint4_linear_627_214)"/>
<path d="M242.476 407.404H196.393L404.894 104H451.001L242.476 407.404Z" fill="url(#paint5_linear_627_214)"/>
<path d="M188.812 407.404H183.824L392.349 104H397.338L188.812 407.404Z" fill="url(#paint6_linear_627_214)"/>
<path d="M242.475 407.404H237.486L446.011 104H451L242.475 407.404Z" fill="url(#paint7_linear_627_214)"/>
</g>
<defs>
<filter id="filter0_d_627_214" x="2" y="6" width="508" height="508" filterUnits="userSpaceOnUse" color-interpolation-filters="sRGB">
<feFlood flood-opacity="0" result="BackgroundImageFix"/>
<feColorMatrix in="SourceAlpha" type="matrix" values="0 0 0 0 0 0 0 0 0 0 0 0 0 0 0 0 0 0 127 0" result="hardAlpha"/>
<feOffset dy="4"/>
<feGaussianBlur stdDeviation="14"/>
<feColorMatrix type="matrix" values="0 0 0 0 0 0 0 0 0 0 0 0 0 0 0 0 0 0 0.5 0"/>
<feBlend mode="normal" in2="BackgroundImageFix" result="effect1_dropShadow_627_214"/>
<feBlend mode="normal" in="SourceGraphic" in2="effect1_dropShadow_627_214" result="shape"/>
</filter>
<linearGradient id="paint0_linear_627_214" x1="113.981" y1="274.9" x2="153.775" y2="430.139" gradientUnits="userSpaceOnUse">
<stop offset="2.98356e-07" stop-color="#6D83EE"/>
<stop offset="0.2399" stop-color="#0044C6"/>
<stop offset="1" stop-color="#84CD28"/>
</linearGradient>
<linearGradient id="paint1_linear_627_214" x1="113.981" y1="274.9" x2="153.775" y2="430.139" gradientUnits="userSpaceOnUse">
<stop offset="2.98356e-07" stop-color="#6D83EE"/>
<stop offset="0.2399" stop-color="#0044C6"/>
<stop offset="1" stop-color="#84CD28"/>
</linearGradient>
<linearGradient id="paint2_linear_627_214" x1="172.285" y1="288.479" x2="172.285" y2="407.405" gradientUnits="userSpaceOnUse">
<stop stop-color="#666666"/>
<stop offset="1"/>
</linearGradient>
<linearGradient id="paint3_linear_627_214" x1="172.285" y1="288.479" x2="172.285" y2="407.405" gradientUnits="userSpaceOnUse">
<stop stop-color="#666666"/>
<stop offset="1"/>
</linearGradient>
<linearGradient id="paint4_linear_627_214" x1="142.73" y1="255.701" x2="451.007" y2="255.701" gradientUnits="userSpaceOnUse">
<stop offset="3.78273e-07" stop-color="#8DBC30"/>
<stop offset="0.3144" stop-color="#E4D300"/>
<stop offset="0.4876" stop-color="#E6970C"/>
<stop offset="0.6581" stop-color="#E86416"/>
<stop offset="0.8057" stop-color="#EA3F1E"/>
<stop offset="0.9246" stop-color="#EB2822"/>
<stop offset="1" stop-color="#EB2024"/>
</linearGradient>
<linearGradient id="paint5_linear_627_214" x1="142.73" y1="255.701" x2="451.007" y2="255.701" gradientUnits="userSpaceOnUse">
<stop offset="3.78273e-07" stop-color="#8DBC30"/>
<stop offset="0.3144" stop-color="#E4D300"/>
<stop offset="0.4876" stop-color="#E6970C"/>
<stop offset="0.6581" stop-color="#E86416"/>
<stop offset="0.8057" stop-color="#EA3F1E"/>
<stop offset="0.9246" stop-color="#EB2822"/>
<stop offset="1" stop-color="#EB2024"/>
</linearGradient>
<linearGradient id="paint6_linear_627_214" x1="317.412" y1="104" x2="317.412" y2="407.404" gradientUnits="userSpaceOnUse">
<stop stop-color="#666666"/>
<stop offset="1"/>
</linearGradient>
<linearGradient id="paint7_linear_627_214" x1="317.412" y1="104" x2="317.412" y2="407.404" gradientUnits="userSpaceOnUse">
<stop stop-color="#666666"/>
<stop offset="1"/>
</linearGradient>
</defs>
</svg>
