<svg width="512" height="512" viewBox="0 0 512 512" fill="none" xmlns="http://www.w3.org/2000/svg">
<g filter="url(#filter0_d_629_3883)">
<path d="M386.334 88C397.56 88.0003 406.76 96.7026 407.577 107.749H457.137L457.688 107.756C469.198 108.049 478.44 117.492 478.44 129.098V162.29C478.44 171.644 472.438 179.592 464.083 182.478C465.263 183.812 466.379 185.202 467.425 186.641C476.251 198.776 480 213.847 480 227.812C480 242.891 476.131 259.733 469.537 273.388C465.842 281.041 458.286 285.38 450.468 285.417V398.342C450.469 398.445 450.471 398.548 450.471 398.652V439.928C450.471 455.876 436.435 468.623 420.184 466.349C406.853 464.483 394.297 460.972 382.696 457.097L382.61 457.068L382.523 457.038C367.322 451.836 352.393 444.874 338.569 435.852C327.998 429.056 318.818 421.121 310.899 413.875L310.794 413.779L310.69 413.681C302.138 405.675 293.927 396.848 286.552 387.143V440.313C286.552 455.046 274.63 467.013 259.9 467C246.779 466.988 234.443 466.853 221.97 466.98C207.3 467.13 195.215 455.34 195.068 440.559C194.892 422.716 194.87 404.792 194.882 386.944C185.208 399.612 174.123 410.781 162.722 420.537C143.762 437.345 121.428 449.046 99.2931 456.81L99.2697 456.818L99.2473 456.826C87.1562 461.04 74.5442 464.324 61.5787 466.282C45.2815 468.744 31.0003 456.015 31 439.901V398.643C31 385.348 40.6757 374.366 53.3611 372.291L54.3621 372.12C64.6835 370.3 75.1502 366.432 85.4472 361.018C98.069 354.277 109.473 345.328 119.099 334.579L119.163 334.507L119.228 334.437C129.015 323.675 137.095 310.625 143.518 296.288L143.545 296.227L143.572 296.167C150.616 280.665 154.655 263.06 157.665 243.697L158.009 241.429C161.476 218.065 162.859 194.095 163.492 169.429V145.083C163.492 130.344 175.414 118.396 190.121 118.396L340.058 118.317V109.349C340.058 97.5579 349.596 88 361.361 88H386.334Z" fill="white"/>
<path d="M146.288 401.689C164.152 386.439 180.197 368.205 190.452 346.821C196.738 333.394 201.7 319.469 204.181 304.882C207.655 283.829 208.978 262.446 210.136 241.062C210.797 226.308 211.128 211.555 211.128 196.636V143.425H188.467C188.467 152.211 188.467 160.997 188.467 169.782C187.806 195.807 186.317 221.833 182.347 247.527C179.205 267.75 174.739 287.974 166.303 306.539C159.025 322.785 149.597 338.201 137.687 351.296C126.109 364.226 112.38 375.001 97.1625 383.123C84.2607 389.92 70.3665 395.059 55.9761 397.214V441.805C67.8854 440.147 79.6293 437.163 91.0424 433.185C110.891 426.223 130.244 415.945 146.288 401.689Z" fill="url(#paint0_linear_629_3883)"/>
<path d="M219.893 346.82C219.893 378.482 219.727 410.309 220.058 441.97C233.787 441.804 247.681 441.97 261.575 441.97V143.591C247.681 143.591 233.787 143.591 219.893 143.591C219.893 211.223 219.893 279.022 219.893 346.82Z" fill="url(#paint1_linear_629_3883)"/>
<path d="M407.962 393.07C387.121 386.273 367.933 374.835 352.054 359.585C335.514 343.837 322.777 324.111 314.011 303.059C304.748 281.177 300.613 257.639 297.635 234.265C293.996 204.096 293.004 173.761 293.169 143.425H270.674V192.327C270.509 221.17 271.501 250.013 273.982 278.691C275.305 291.952 276.794 305.379 280.268 318.309C283.741 331.239 288.869 343.671 295.485 355.441C303.921 370.36 315.168 383.621 327.739 395.39C335.348 402.353 343.288 409.149 352.054 414.785C363.964 422.576 377.031 428.709 390.594 433.351C402.007 437.163 413.586 440.313 425.495 441.805C425.495 426.886 425.495 412.133 425.495 397.214C419.706 396.385 413.751 394.893 407.962 393.07Z" fill="url(#paint2_linear_629_3883)"/>
<path d="M424.912 185.043C448.412 185.043 460.019 206.5 460.019 227.812C460.019 240.248 456.627 254.634 451.017 265.749L423.224 254.779L424.656 252.942C429.606 246.531 433.656 238.815 433.657 230.567C433.657 227.039 432.226 221.417 427.774 221.417C423.337 221.417 422.952 226.121 422.293 229.391L420.99 236.592C418.515 250.59 410.285 262.349 394.887 262.349C371.531 262.349 358.479 241.021 358.479 219.58C358.479 208.337 361.211 197.995 367.094 188.313L392.283 197.995C388.103 204.149 384.84 211.075 384.84 218.791C384.84 221.933 386.014 226.508 390.064 226.508C393.713 226.508 394.244 222.061 394.887 219.322L396.719 211.204C400.11 196.03 408.211 185.043 424.912 185.043Z" fill="url(#paint3_linear_629_3883)"/>
<path d="M387.65 108.026L387.699 127.775H458.457V163.618H387.699L387.65 183.367H360.036V108.026H387.65Z" fill="url(#paint4_linear_629_3883)"/>
</g>
<defs>
<filter id="filter0_d_629_3883" x="2" y="6" width="508" height="508" filterUnits="userSpaceOnUse" color-interpolation-filters="sRGB">
<feFlood flood-opacity="0" result="BackgroundImageFix"/>
<feColorMatrix in="SourceAlpha" type="matrix" values="0 0 0 0 0 0 0 0 0 0 0 0 0 0 0 0 0 0 127 0" result="hardAlpha"/>
<feOffset dy="4"/>
<feGaussianBlur stdDeviation="14"/>
<feColorMatrix type="matrix" values="0 0 0 0 0 0 0 0 0 0 0 0 0 0 0 0 0 0 0.5 0"/>
<feBlend mode="normal" in2="BackgroundImageFix" result="effect1_dropShadow_629_3883"/>
<feBlend mode="normal" in="SourceGraphic" in2="effect1_dropShadow_629_3883" result="shape"/>
</filter>
<linearGradient id="paint0_linear_629_3883" x1="348.076" y1="143.425" x2="348.076" y2="441.805" gradientUnits="userSpaceOnUse">
<stop stop-color="#FF7E88"/>
<stop offset="1" stop-color="#E4202F"/>
</linearGradient>
<linearGradient id="paint1_linear_629_3883" x1="348.076" y1="143.425" x2="348.076" y2="441.805" gradientUnits="userSpaceOnUse">
<stop stop-color="#FF7E88"/>
<stop offset="1" stop-color="#E4202F"/>
</linearGradient>
<linearGradient id="paint2_linear_629_3883" x1="348.076" y1="143.425" x2="348.076" y2="441.805" gradientUnits="userSpaceOnUse">
<stop stop-color="#FF7E88"/>
<stop offset="1" stop-color="#E4202F"/>
</linearGradient>
<linearGradient id="paint3_linear_629_3883" x1="455.694" y1="265.866" x2="363.055" y2="265.407" gradientUnits="userSpaceOnUse">
<stop stop-color="#FB6E79"/>
<stop offset="1" stop-color="#F45763"/>
</linearGradient>
<linearGradient id="paint4_linear_629_3883" x1="455.694" y1="265.866" x2="363.055" y2="265.407" gradientUnits="userSpaceOnUse">
<stop stop-color="#FB6E79"/>
<stop offset="1" stop-color="#F45763"/>
</linearGradient>
</defs>
</svg>
